<svg width="30" height="30" viewBox="0 0 30 30" fill="none" xmlns="http://www.w3.org/2000/svg">
<path d="M8.8421 5.58182H8.84211H21.1557L21.2346 5.58408C21.5571 5.60374 21.8603 5.74654 22.0823 5.98378C22.3048 6.22159 22.429 6.53633 22.4289 6.86363V22.1343L22.4267 22.2138C22.4071 22.5397 22.265 22.8457 22.0295 23.0694C21.7936 23.2935 21.4818 23.4182 21.1579 23.4182H8.8442L8.76534 23.4159C8.44288 23.3962 8.13971 23.2535 7.91771 23.0162C7.69516 22.7784 7.57103 22.4637 7.57105 22.1364V6.86575L7.5733 6.78618C7.59286 6.46027 7.735 6.15433 7.97045 5.93063C8.20641 5.70647 8.51824 5.5818 8.8421 5.58182ZM23.274 4.73307C22.713 4.16778 21.9518 3.85 21.1579 3.85H8.84211C8.04818 3.85 7.28701 4.16778 6.72597 4.73307C6.16497 5.29833 5.85 6.06473 5.85 6.86364V22.1364C5.85 22.9353 6.16497 23.7017 6.72597 24.2669C7.28701 24.8322 8.04818 25.15 8.84211 25.15H21.1579C21.9518 25.15 22.713 24.8322 23.274 24.2669C23.835 23.7017 24.15 22.9353 24.15 22.1364V6.86364C24.15 6.06473 23.835 5.29833 23.274 4.73307ZM16.7931 15.0813C16.6318 14.9188 16.4128 14.8273 16.1842 14.8273H10.0263C9.79772 14.8273 9.57872 14.9188 9.41743 15.0813C9.25618 15.2438 9.16579 15.4639 9.16579 15.6932C9.16579 15.9225 9.25618 16.1426 9.41743 16.3051C9.57872 16.4676 9.79772 16.5591 10.0263 16.5591H16.1842C16.4128 16.5591 16.6318 16.4676 16.7931 16.3051C16.9543 16.1426 17.0447 15.9225 17.0447 15.6932C17.0447 15.4639 16.9543 15.2438 16.7931 15.0813ZM20.5826 9.83129C20.4213 9.66878 20.2023 9.57727 19.9737 9.57727H10.0263C9.79772 9.57727 9.57872 9.66878 9.41743 9.83129C9.25618 9.99377 9.16579 10.2139 9.16579 10.4432C9.16579 10.6725 9.25618 10.8926 9.41743 11.0551C9.57872 11.2176 9.79772 11.3091 10.0263 11.3091H19.9737C20.2023 11.3091 20.4213 11.2176 20.5826 11.0551C20.7438 10.8926 20.8342 10.6725 20.8342 10.4432C20.8342 10.2139 20.7438 9.99377 20.5826 9.83129Z" fill="black" stroke="black" stroke-width="0.3"/>
</svg>
