<svg width="48" height="48" viewBox="0 0 48 48" fill="none" xmlns="http://www.w3.org/2000/svg">
<rect width="48" height="48" rx="22" fill="#52DEA7"/>
<path d="M30.0342 8C25.0795 16.1903 21.159 12.1628 15.4254 18.0533C10.3654 23.2514 12.1204 29.5121 16.3799 31.6682C20.585 29.5196 24.8869 24.7151 28.0783 17.7602C28.0783 17.7602 30.9455 26.5424 22.1624 35.0042C26.4276 39.9994 33.6663 36.5243 35.6889 28.5773C37.8882 19.9379 32.1556 11.1416 30.0342 8ZM11.8169 36.3674C11.8197 36.4529 11.9174 38.0632 14.0294 38.0632C15.5663 38.0632 23.3602 33.8158 27.3661 22.7911C21.3047 33.5133 12.5065 36.1739 11.8169 36.3674Z" fill="white"/>
</svg>
