<svg width="30" height="30" viewBox="0 0 30 30" fill="none" xmlns="http://www.w3.org/2000/svg">
<path d="M21.4446 6.66295C20.0477 6.00137 18.6772 5.77059 17.3571 5.95778C17.3703 5.92188 17.3915 5.88854 17.4021 5.85264C17.5824 5.29107 17.5267 4.69616 17.2431 4.17562C16.6599 3.1012 15.2815 2.68835 14.1708 3.25249C13.0601 3.81662 12.6333 5.15004 13.2165 6.22446C13.4603 6.67577 13.8474 7.00656 14.2954 7.20144C12.5909 8.37587 11.0189 10.335 9.6405 13.0454C9.05997 14.1839 7.57815 14.748 6.49396 15.1583C5.64305 15.4814 5.08107 15.6943 5.00685 16.184C4.98034 16.3661 5.01745 16.6353 5.35941 16.8943C6.97642 18.1175 10.5709 20.1535 14.2105 22.1511C13.9958 22.6665 13.9401 23.2306 14.0621 23.7845C14.2238 24.5153 14.6691 25.1435 15.3186 25.5513C15.8037 25.8564 16.3497 26 16.8879 26C17.7785 26 18.648 25.6 19.21 24.8692C19.8515 25.2179 20.4559 25.5461 20.9966 25.8436L21.0682 25.8846C21.1318 25.9205 21.275 26 21.4367 26C21.5427 26 21.6567 25.9667 21.7601 25.8641C21.8582 25.7667 21.996 25.5564 21.7972 25.2282C21.0735 24.0383 21.5083 22.2588 22.0013 20.9741C22.2717 20.2715 22.5951 19.5329 22.9371 18.7534C24.7794 14.5532 27.0724 9.33234 21.4446 6.66295ZM14.0621 5.79366C13.7228 5.17055 13.972 4.39871 14.6161 4.07049C14.8123 3.97048 15.0217 3.92432 15.2284 3.92432C15.7029 3.92432 16.1615 4.17306 16.3975 4.60641C16.5618 4.909 16.5936 5.25261 16.4902 5.57827C16.3869 5.90393 16.1562 6.17061 15.8461 6.32959C15.2019 6.65782 14.4014 6.41678 14.0621 5.79366ZM15.8408 24.7717C15.4061 24.4999 15.1065 24.0794 15.0005 23.5896C14.9289 23.2588 14.9554 22.9255 15.0614 22.6126C16.0423 23.1485 17.0125 23.6742 17.9402 24.1768C18.0834 24.2563 18.2239 24.3307 18.3644 24.4076C17.7441 25.1153 16.6652 25.2897 15.8408 24.7717ZM22.057 18.3893C21.7097 19.1791 21.3837 19.9278 21.1053 20.651C20.6786 21.7664 20.2968 23.2229 20.5434 24.5307C19.8833 24.1717 19.1623 23.7794 18.4068 23.3691C13.9534 20.9561 8.45028 17.9739 6.13875 16.2994C6.33226 16.2122 6.6053 16.1071 6.84122 16.0174C7.99964 15.5789 9.75448 14.9147 10.4967 13.4531C12.5432 9.42722 16.0316 5.12439 21.0232 7.4912C25.8371 9.77595 23.9152 14.1557 22.057 18.3893Z" fill="black" stroke="black" stroke-width="0.9"/>
</svg>
